<svg xmlns="http://www.w3.org/2000/svg" viewBox="0 0 196 42"><path d="M26.834 13.678c0 7.407-6.002 13.412-13.407 13.412S.02 21.085.02 13.678C.02 6.276 6.023.273 13.427.273s13.407 6.003 13.407 13.405z" fill="#d9c594"/><path fill="#fff" d="M18.788 6.78l-7.644 7.641-3.079-3.083-3.082 3.083 6.161 6.159L21.867 9.859z"/><path d="M48.656 16.428c-.625.547-1.615.755-3.099.755h-5.774v6.19h-4.242V5.16h10.015c1.484 0 2.474.184 3.099.733.833.75 1.559 1.925 1.559 5.305.001 3.303-.75 4.502-1.558 5.23zm-4.762-2.576c.962 0 1.249-.054 1.432-.209.285-.263.522-.728.522-2.495 0-1.772-.261-2.212-.522-2.45-.182-.154-.469-.234-1.432-.234h-4.109v5.389h4.109zm7.752 9.521V9.064h3.979v2.184c1.483-1.533 2.238-2.212 3.383-2.212h1.534v3.933h-1.847c-1.094 0-1.925.1-3.07.572v9.832h-3.979zm11.08-.882c-.935-.934-1.299-2.237-1.299-6.272 0-4.058.363-5.332 1.299-6.296.599-.626 1.382-.859 2.837-.859h4.865c1.458 0 2.212.233 2.835.859.936.964 1.3 2.237 1.3 6.296 0 4.062-.364 5.338-1.3 6.272-.623.653-1.377.882-2.835.882h-4.865c-1.455 0-2.211-.23-2.837-.882zm2.992-2.527c.156.209.365.261 1.042.261h2.47c.676 0 .884-.079 1.041-.261.208-.206.338-.676.338-3.745s-.13-3.538-.338-3.772c-.156-.181-.365-.234-1.041-.234h-2.47c-.677 0-.886.054-1.042.234-.208.234-.339.703-.339 3.772s.131 3.539.339 3.745zm19.142 2.527c-.259.753-.568.935-1.351.935h-2.602c-.754 0-1.094-.182-1.351-.935L75.029 9.064h4.241l2.914 10.173h.283l2.865-10.173h4.058l-4.53 13.427zm8.872-5.359c.025 2.261.181 2.862.337 3.041.184.211.599.263 1.275.263h2.419c.807 0 1.017-.08 1.172-.263.129-.156.182-.544.208-1.558h3.668c-.027 2.134-.259 3.227-.961 3.929-.443.439-1.018.828-2.552.828h-5.307c-1.458 0-2.212-.229-2.836-.882-.936-.934-1.299-2.055-1.299-6.272 0-4.214.363-5.332 1.299-6.296.6-.626 1.378-.859 2.836-.859h4.84c1.456 0 2.238.233 2.835.859.937.941 1.145 2.055 1.145 6.169v.467c0 .417-.107.574-.576.574h-8.503zm0-2.239h5.282c0-1.925-.132-2.447-.315-2.654-.154-.157-.39-.234-1.196-.234h-2.159c-.676 0-1.091.054-1.275.261-.182.18-.312.622-.337 2.627zm11.106 8.48V9.064h3.98v1.899c1.846-1.667 2.418-1.928 3.745-1.928h1.742c1.225 0 2.005.261 2.55.808.599.572.832 1.329.832 3.434v10.095h-3.978v-9.624c0-.599-.105-.937-.313-1.171-.236-.236-.494-.311-1.2-.311h-1.118c-.676 0-1.3.154-2.261.599v10.508h-3.979zm32.799 0h-12.016V5.16h12.096v1.77h-10.045v6.115h8.612v1.742h-8.612v6.818h9.964v1.768zm.857 0l4.917-7.077-4.836-6.84h2.239l3.795 5.437h.233l3.72-5.437h2.135l-4.84 6.895 4.943 7.022h-2.239l-3.928-5.59h-.209l-3.826 5.59h-2.104zm15.895-13.917v1.846c1.844-1.51 2.497-1.874 3.953-1.874h1.613c1.587 0 2.366.261 2.964.857.808.837 1.093 1.928 1.093 6.118 0 4.217-.284 5.307-1.093 6.142-.597.599-1.377.859-2.964.859h-1.613c-1.429 0-2.135-.365-3.953-1.876v5.75h-1.926V9.456h1.926zm0 2.94v8.013c1.429.909 2.264 1.274 3.461 1.274h1.714c1.121 0 1.563-.183 1.876-.49.517-.522.651-1.329.651-4.79 0-3.434-.134-4.269-.651-4.763-.313-.338-.755-.492-1.876-.492h-1.766c-1.2 0-2.03.361-3.409 1.248zm13.763 4.631c.025 3.175.234 3.878.626 4.267.313.311.674.388 1.663.388h3.461c.86 0 1.222-.102 1.509-.388.311-.316.442-.756.469-2.186h1.871c-.05 2.13-.286 2.862-.962 3.534-.517.524-1.197.73-2.522.73h-4.006c-1.433 0-2.239-.181-2.837-.778-.882-.885-1.196-2.002-1.196-6.192 0-4.164.315-5.282 1.196-6.169.597-.597 1.404-.778 2.837-.778h3.488c1.402 0 2.263.204 2.808.751.884.914 1.195 2.032 1.195 6.065v.44c0 .208-.08.315-.311.315h-9.289zm0-1.538h7.702c-.027-2.86-.234-3.563-.649-3.953-.288-.288-.653-.415-1.667-.415h-3.096c-.989 0-1.351.104-1.692.44-.39.39-.572 1.016-.598 3.928zm12.257 7.884V9.456h1.924v2.264c1.69-1.772 2.316-2.293 3.484-2.293h1.597v1.98h-1.777c-1.068 0-1.794.154-3.303 1.195v10.771h-1.925zm15.582-.414l-1.223.311a9.267 9.267 0 0 1-1.874.206c-.91 0-1.56-.156-2.053-.648-.47-.469-.599-1.068-.599-2.189V11.12h-2.311V9.456h2.311V5.967h1.95v3.489h3.829v1.665h-3.829v9.081c0 .726.08 1.038.288 1.222.157.182.443.286 1.222.286h2.291v1.249zM115.05 31.47h.779v7.003h-.779V31.47zm3.57 2.601v2.419c0 1.103.071 1.417.729 1.417.284 0 .9-.061.9-.061l.051.628s-.679.111-1.033.111c-1.043 0-1.397-.395-1.397-1.852v-2.662h-.718v-.658h.718v-1.548h.749v1.548h1.609v.658h-1.608zm2.992-2.762h.8l-.648 2.216h-.597l.445-2.216zm5.321 2.843s-1.124-.162-1.771-.162c-.627 0-1.103.172-1.103.77 0 .475.243.607 1.315.789 1.265.213 1.741.465 1.741 1.447 0 1.184-.749 1.579-1.964 1.579-.648 0-1.781-.192-1.781-.192l.04-.658s1.154.172 1.67.172c.829 0 1.275-.182 1.275-.87 0-.526-.264-.658-1.366-.83-1.144-.182-1.69-.395-1.69-1.407 0-1.113.901-1.478 1.822-1.478.759 0 1.832.192 1.832.192l-.02.648zm5.407-2.682h1.7l1.923 7.003h-.769l-.506-1.802h-2.996l-.506 1.802h-.769l1.923-7.003zm-.475 4.504h2.651l-1.063-3.836h-.526l-1.062 3.836zm5.326-4.766h.759v7.266h-.759v-7.266zm2.538 0h.759v7.266h-.759v-7.266zm6.34.262h1.7l1.923 7.003h-.769l-.506-1.802h-2.996l-.506 1.802h-.769l1.923-7.003zm-.475 4.504h2.651l-1.063-3.836h-.526l-1.062 3.836zm9.345-.112c0 2.013-.547 2.712-2.389 2.712-.607 0-1.689-.111-1.689-.111v-7.256h.749v2.458s.769-.354 1.487-.354c1.376.001 1.842.73 1.842 2.551zm-.77 0c0-1.305-.263-1.873-1.153-1.873-.699 0-1.407.294-1.407.294v3.562s.658.051.93.051c1.388.001 1.63-.617 1.63-2.034zm6.321.021c0 1.842-.455 2.692-2.166 2.692-1.7 0-2.166-.85-2.166-2.692 0-1.74.566-2.571 2.166-2.571 1.61 0 2.166.83 2.166 2.571zm-.779 0c0-1.407-.304-1.913-1.387-1.913-1.073 0-1.387.506-1.387 1.913 0 1.437.192 2.034 1.387 2.034 1.205 0 1.387-.598 1.387-2.034zm6.127-2.47v5.06h-.759v-.354s-.759.455-1.498.455c-1.417 0-1.71-.658-1.71-2.519v-2.642h.759v2.631c0 1.397.121 1.853 1.063 1.853.749 0 1.387-.375 1.387-.375v-4.108h.758zm2.667.658v2.419c0 1.103.071 1.417.729 1.417.283 0 .9-.061.9-.061l.051.628s-.679.111-1.033.111c-1.043 0-1.397-.395-1.397-1.852v-2.662h-.718v-.658h.718v-1.548h.749v1.548h1.609v.658h-1.608zm4.568-2.601h5.06v.699h-2.135v6.304h-.769v-6.304h-2.156v-.699zm5.249 1.943h.749v.688s.88-.607 1.852-.799v.769c-.951.192-1.842.689-1.842.689v3.714h-.759v-5.061zm7.616 0v5.06h-.759v-.354s-.759.455-1.498.455c-1.417 0-1.71-.658-1.71-2.519v-2.642h.759v2.631c0 1.397.121 1.853 1.063 1.853.749 0 1.387-.375 1.387-.375v-4.108h.758zm5.014.739s-1.124-.162-1.771-.162c-.627 0-1.103.172-1.103.77 0 .475.243.607 1.315.789 1.265.213 1.741.465 1.741 1.447 0 1.184-.749 1.579-1.964 1.579-.648 0-1.781-.192-1.781-.192l.04-.658s1.154.172 1.67.172c.829 0 1.275-.182 1.275-.87 0-.526-.264-.658-1.366-.83-1.144-.182-1.69-.395-1.69-1.407 0-1.113.901-1.478 1.822-1.478.759 0 1.832.192 1.832.192l-.02.648zm2.556-.081v2.419c0 1.103.071 1.417.729 1.417.284 0 .9-.061.9-.061l.051.628s-.679.111-1.033.111c-1.043 0-1.397-.395-1.397-1.852v-2.662h-.718v-.658h.718v-1.548h.749v1.548h1.609v.658h-1.608z" fill="#1d1d1d"/></svg>