<svg xmlns="http://www.w3.org/2000/svg" width="40.3484mm" height="5.559mm" viewBox="0 0 114.3735 15.7578"><defs><style>.a{fill:#d9c594;}.b{fill:#fff;}</style></defs><title>Element 1</title><path class="a" d="M15.647,7.8223A7.8235,7.8235,0,1,1,7.8237,0,7.8247,7.8247,0,0,1,15.647,7.8223Z"/><polygon class="b" points="10.952 3.797 6.491 8.256 4.695 6.457 2.896 8.256 6.491 11.85 12.748 5.594 10.952 3.797"/><path class="b" d="M28.3813,9.4268a2.7029,2.7029,0,0,1-1.8081.44H23.2041V13.48H20.729V2.8516h5.8442a2.7039,2.7039,0,0,1,1.8081.4277c.4859.4375.91,1.123.91,3.0957C29.291,8.3027,28.8525,9.0019,28.3813,9.4268Zm-2.7792-1.503c.5615,0,.729-.0312.8354-.122.1665-.1534.3047-.4249.3047-1.4561,0-1.0342-.1524-1.291-.3047-1.43-.1064-.09-.2739-.1367-.8354-.1367h-2.398V7.9238ZM30.126,13.48V5.13h2.3218V6.4043c.8652-.8945,1.3061-1.291,1.9741-1.291h.895V7.4082H34.2393a4.2182,4.2182,0,0,0-1.7915.334V13.48Zm6.4653-.5147c-.5459-.5449-.7578-1.3056-.7578-3.66,0-2.3682.2119-3.1113.7578-3.6738a2.0623,2.0623,0,0,1,1.6553-.501h2.8388a2.0762,2.0762,0,0,1,1.6543.501c.5464.5625.7588,1.3056.7588,3.6738,0,2.37-.2124,3.1152-.7588,3.66a2.0222,2.0222,0,0,1-1.6543.5147H38.2466A2.03,2.03,0,0,1,36.5913,12.9648ZM38.3374,11.49c.0908.1221.2129.1524.6079.1524h1.4414c.3945,0,.5161-.0459.6074-.1524.1216-.12.1973-.3945.1973-2.1855s-.0757-2.0645-.1973-2.2012c-.0913-.1054-.2129-.1367-.6074-.1367H38.9453c-.395,0-.5171.0313-.6079.1367-.1211.1367-.1978.41-.1978,2.2012S38.2163,11.37,38.3374,11.49Zm11.17,1.4746c-.1514.4395-.3315.5459-.7886.5459H47.2007a.6814.6814,0,0,1-.7886-.5459L43.7705,5.13h2.4746l1.7007,5.9365h.165L49.7827,5.13h2.3682Zm5.1768-3.1269c.0146,1.3193.1059,1.67.1967,1.7744.1075.1231.35.1533.7442.1533h1.4116c.4712,0,.5933-.0468.6841-.1533.0752-.0908.1064-.3174.1211-.9092h2.1406c-.0156,1.2451-.1514,1.8828-.56,2.293a1.8325,1.8325,0,0,1-1.4893.4834H54.8364a2.0244,2.0244,0,0,1-1.6552-.5147c-.5464-.5449-.7583-1.1992-.7583-3.66,0-2.459.2119-3.1113.7583-3.6738a2.06,2.06,0,0,1,1.6552-.501h2.8242a2.0565,2.0565,0,0,1,1.6543.501c.5469.5488.668,1.1992.668,3.6v.2724c0,.2432-.0625.335-.3359.335Zm0-1.3066h3.082c0-1.1231-.0771-1.4278-.1836-1.5489-.09-.0918-.2275-.1367-.6977-.1367h-1.26c-.3945,0-.6367.0312-.7442.1524C54.7749,7.1035,54.6992,7.3613,54.6846,8.5313ZM61.1655,13.48V5.13h2.3223V6.2383c1.0771-.9727,1.4111-1.125,2.1855-1.125H66.69a1.9623,1.9623,0,0,1,1.4883.4717c.35.334.4854.7753.4854,2.0039V13.48H66.3423V7.8633A.9719.9719,0,0,0,66.16,7.18c-.1377-.1377-.2881-.1816-.7-.1816h-.6524a2.97,2.97,0,0,0-1.3193.35V13.48Zm19.14,0H73.2935V2.8516h7.0586V3.8848H74.4907V7.4531h5.0254V8.47H74.4907v3.9785h5.8145Zm.5,0,2.8691-4.13L80.8521,5.3584h1.3066l2.2148,3.1729h.1358L86.68,5.3584h1.2461L85.1021,9.3818,87.9868,13.48H86.68l-2.292-3.2617h-.1221L82.0337,13.48Zm9.2754-8.1211V6.4356c1.0761-.8809,1.457-1.0938,2.3066-1.0938h.9414a2.2054,2.2054,0,0,1,1.73.5c.4717.4883.6377,1.125.6377,3.57,0,2.4609-.166,3.0967-.6377,3.584a2.198,2.198,0,0,1-1.73.501h-.9414c-.834,0-1.2461-.2129-2.3066-1.0948v3.3555H88.9565V5.3584Zm0,1.7158V11.75a3.4707,3.4707,0,0,0,2.0195.7432h1c.6543,0,.9121-.1065,1.0947-.2862.3018-.3047.38-.7754.38-2.7949,0-2.0039-.0781-2.4912-.38-2.7793-.1826-.1972-.44-.2871-1.0947-.2871H92.07A3.3777,3.3777,0,0,0,90.0806,7.0742Zm8.0312,2.7022c.0147,1.8525.1367,2.2627.3653,2.49.1826.1816.3935.2266.9707.2266h2.0195c.5019,0,.7129-.06.8808-.2266.1817-.1846.2579-.4414.2735-1.2754h1.0918c-.0293,1.2432-.167,1.67-.5615,2.0625a1.8671,1.8671,0,0,1-1.4717.4258H99.3423a2.1458,2.1458,0,0,1-1.6553-.4541c-.5146-.5166-.6982-1.168-.6982-3.6133,0-2.43.1836-3.082.6982-3.6a2.1458,2.1458,0,0,1,1.6553-.4541h2.0351a2.2094,2.2094,0,0,1,1.6387.4385c.5156.5332.6973,1.1855.6973,3.539v.2569c0,.1211-.0469.1836-.1817.1836Zm0-.8975h4.4942c-.0157-1.6689-.1368-2.0791-.3789-2.3066-.168-.168-.3809-.2422-.9727-.2422H99.4478c-.5772,0-.7881.0605-.9874.2568C98.2329,6.8144,98.1265,7.18,98.1118,8.8789Zm7.1524,4.6006V5.3584h1.123V6.68c.9863-1.0342,1.3516-1.3379,2.0332-1.3379h.9317V6.4971h-1.0372a2.9145,2.9145,0,0,0-1.9277.6972V13.48Zm9.0927-.2412-.7138.1816a5.4053,5.4053,0,0,1-1.0938.12,1.5712,1.5712,0,0,1-1.1982-.3779,1.6282,1.6282,0,0,1-.35-1.2773V6.33h-1.3487V5.3584h1.3487V3.3223h1.1377V5.3584h2.2343V6.33h-2.2343v5.2988c0,.4238.0468.6055.1679.7129.0918.1064.2588.167.7129.167h1.3369Z"/></svg>